<?xml version="1.0" encoding="UTF-8"?>
<svg width="212px" height="666px" viewBox="0 0 212 666" version="1.1" xmlns="http://www.w3.org/2000/svg" xmlns:xlink="http://www.w3.org/1999/xlink">
    <!-- Generator: Sketch 42 (36781) - http://www.bohemiancoding.com/sketch -->
    <title>art_lines_L</title>
    <desc>Created with Sketch.</desc>
    <defs></defs>
    <g id="Page-1" stroke="none" stroke-width="1" fill="none" fill-rule="evenodd">
        <g id="Desktop-HD" transform="translate(-460.000000, -179.000000)">
            <g id="art_lines_L" transform="translate(460.000000, 178.000000)">
                <polyline id="Stroke-1" stroke="#0073AE" points="208.2612 4.7594 4.2482 5.1274 4.2482 362.8924 4.2482 662.7754 39.1102 662.7754"></polyline>
                <g id="Group-22" transform="translate(0.000000, 0.016000)">
                    <path d="M208.0669,0.9841 C210.1429,0.9801 211.8289,2.6611 211.8329,4.7371 C211.8369,6.8131 210.1569,8.5001 208.0809,8.5041 C206.0039,8.5071 204.3169,6.8271 204.3129,4.7511 C204.3089,2.6741 205.9909,0.9881 208.0669,0.9841" id="Fill-2" fill="#0073AE"></path>
                    <path d="M38.9214,666.5193 C40.9974,666.5193 42.6814,664.8353 42.6814,662.7593 C42.6814,660.6833 40.9974,658.9993 38.9214,658.9993 C36.8454,658.9993 35.1614,660.6833 35.1614,662.7593 C35.1614,664.8353 36.8454,666.5193 38.9214,666.5193" id="Fill-4" fill="#0073AE"></path>
                    <path d="M42.603,362.6565 L4.249,362.6565" id="Stroke-6" stroke="#0073AE"></path>
                    <path d="M42.603,237.532 L4.249,237.532" id="Stroke-8" stroke="#0073AE"></path>
                    <path d="M42.603,110.1511 L4.249,110.1511" id="Stroke-10" stroke="#0073AE"></path>
                    <path d="M8.0552,110.4163 C8.0552,112.6413 6.2512,114.4433 4.0282,114.4433 C1.8032,114.4433 0.0002,112.6413 0.0002,110.4163 C0.0002,108.1923 1.8032,106.3893 4.0282,106.3893 C6.2512,106.3893 8.0552,108.1923 8.0552,110.4163" id="Fill-12" fill="#0073AE"></path>
                    <path d="M8.0552,6.4026 C8.0552,8.6276 6.2512,10.4306 4.0282,10.4306 C1.8032,10.4306 0.0002,8.6276 0.0002,6.4026 C0.0002,4.1786 1.8032,2.3756 4.0282,2.3756 C6.2512,2.3756 8.0552,4.1786 8.0552,6.4026" id="Fill-14" fill="#0073AE"></path>
                    <path d="M8.0552,237.532 C8.0552,239.757 6.2512,241.56 4.0282,241.56 C1.8032,241.56 0.0002,239.757 0.0002,237.532 C0.0002,235.308 1.8032,233.505 4.0282,233.505 C6.2512,233.505 8.0552,235.308 8.0552,237.532" id="Fill-16" fill="#0073AE"></path>
                    <path d="M8.0552,362.8772 C8.0552,365.1012 6.2512,366.9042 4.0282,366.9042 C1.8032,366.9042 0.0002,365.1012 0.0002,362.8772 C0.0002,360.6522 1.8032,358.8492 4.0282,358.8492 C6.2512,358.8492 8.0552,360.6522 8.0552,362.8772" id="Fill-18" fill="#0073AE"></path>
                    <path d="M8.0552,662.9724 C8.0552,665.1974 6.2512,666.9994 4.0282,666.9994 C1.8032,666.9994 0.0002,665.1974 0.0002,662.9724 C0.0002,660.7484 1.8032,658.9454 4.0282,658.9454 C6.2512,658.9454 8.0552,660.7484 8.0552,662.9724" id="Fill-20" fill="#0073AE"></path>
                </g>
            </g>
        </g>
    </g>
</svg>