<?xml version="1.0" encoding="UTF-8"?>
<svg width="230px" height="127px" viewBox="0 0 230 127" version="1.1" xmlns="http://www.w3.org/2000/svg" xmlns:xlink="http://www.w3.org/1999/xlink">
    <!-- Generator: Sketch 42 (36781) - http://www.bohemiancoding.com/sketch -->
    <title>peakCallPanel2</title>
    <desc>Created with Sketch.</desc>
    <defs></defs>
    <g id="Page-1" stroke="none" stroke-width="1" fill="none" fill-rule="evenodd">
        <g id="Desktop-HD-Copy" transform="translate(-845.000000, -478.000000)">
            <g id="Page-1" transform="translate(846.000000, 478.000000)">
                <g id="peakCallPanel2" transform="translate(0.000000, 0.067000)">
                    <path d="M144.9719,55.3583 L144.9719,16.9333 C144.9719,8.0963 137.8089,0.9333 128.9719,0.9333 L15.9999,0.9333 C7.1629,0.9333 -0.0001,8.0963 -0.0001,16.9333 L-0.0001,53.8783 C-0.0001,61.7763 6.4029,68.1783 14.3009,68.1783 L28.6009,68.1783 L28.6009,109.0003 C28.6009,117.8363 35.7649,125.0003 44.6009,125.0003 L211.8169,125.0003 C220.6539,125.0003 227.8169,117.8363 227.8169,109.0003 L227.8169,71.3583 C227.8169,62.5223 220.6539,55.3583 211.8169,55.3583 L144.9719,55.3583 Z" id="Fill-1" stroke="#0073AE" stroke-width="2" fill="#000000" opacity="0.5"></path>
                    <polygon id="Fill-4" fill="#4FD4E9" points="150.5247 80.556 95.3277 80.556 99.7087 91.492 95.3277 104.153 150.5247 104.153 154.9177 91.492"></polygon>
                    <polygon id="Fill-6" fill="#FFFFFF" points="96.0295 80.556 40.8315 80.556 45.2125 91.492 40.8315 104.153 96.0295 104.153 100.4215 91.492"></polygon>
                    <polygon id="Fill-8" fill="#0073AE" points="205.0208 80.556 149.8238 80.556 154.2038 91.492 149.8238 104.153 205.0208 104.153 209.4138 91.492"></polygon>
                    <path d="M190.6301,92.4603 L187.5821,86.8443 L189.3541,86.8443 C189.4771,86.8443 189.5671,86.8643 189.6211,86.9043 C189.6771,86.9443 189.7261,87.0103 189.7711,87.1013 L191.9451,91.3483 C191.9681,91.2793 191.9911,91.2113 192.0191,91.1453 C192.0451,91.0773 192.0751,91.0103 192.1101,90.9403 L194.1011,87.1403 C194.1971,86.9423 194.3231,86.8443 194.4781,86.8443 L196.1841,86.8443 L193.1031,92.3723 L196.2701,98.4123 L194.4911,98.4123 C194.3721,98.4123 194.2761,98.3753 194.2031,98.3003 C194.1311,98.2263 194.0701,98.1403 194.0221,98.0443 L191.8071,93.6123 C191.7891,93.6763 191.7691,93.7363 191.7471,93.7923 C191.7251,93.8483 191.7031,93.9003 191.6811,93.9483 L189.5591,98.0443 C189.5101,98.1353 189.4501,98.2193 189.3801,98.2963 C189.3101,98.3733 189.2221,98.4123 189.1151,98.4123 L187.4491,98.4123 L190.6301,92.4603 Z M181.1631,94.0443 L184.2111,94.0443 L183.0471,90.1963 C182.9941,90.0253 182.9361,89.8243 182.8721,89.5923 C182.8081,89.3603 182.7451,89.1083 182.6841,88.8363 C182.6211,89.1083 182.5611,89.3613 182.5011,89.5963 C182.4421,89.8313 182.3841,90.0363 182.3261,90.2123 L181.1631,94.0443 Z M187.3511,98.4123 L185.9761,98.4123 C185.8211,98.4123 185.6951,98.3653 185.5961,98.2723 C185.4961,98.1793 185.4251,98.0633 185.3811,97.9243 L184.6671,95.5643 L180.7061,95.5643 L179.9921,97.9243 C179.9571,98.0473 179.8881,98.1593 179.7841,98.2603 C179.6811,98.3613 179.5541,98.4123 179.4041,98.4123 L178.0231,98.4123 L181.7771,86.8443 L183.5961,86.8443 L187.3511,98.4123 Z M171.6581,94.1453 C171.7221,94.3283 171.7851,94.5143 171.8471,94.7003 C171.9081,94.5083 171.9731,94.3193 172.0381,94.1323 C172.1051,93.9453 172.1751,93.7673 172.2501,93.5963 L175.0801,87.1893 C175.1151,87.1083 175.1511,87.0443 175.1891,86.9963 C175.2271,86.9483 175.2691,86.9133 175.3151,86.8933 C175.3601,86.8713 175.4121,86.8573 175.4701,86.8533 C175.5271,86.8473 175.5961,86.8443 175.6751,86.8443 L177.0171,86.8443 L177.0171,98.4123 L175.4501,98.4123 L175.4501,90.9403 C175.4501,90.8023 175.4531,90.6493 175.4601,90.4843 C175.4671,90.3193 175.4771,90.1503 175.4891,89.9813 L172.6011,96.5403 C172.5341,96.6893 172.4481,96.8063 172.3431,96.8883 C172.2361,96.9713 172.1131,97.0123 171.9731,97.0123 L171.7281,97.0123 C171.5871,97.0123 171.4631,96.9713 171.3581,96.8883 C171.2521,96.8063 171.1661,96.6893 171.1001,96.5403 L168.1711,89.9563 C168.1891,90.1323 168.2001,90.3043 168.2071,90.4723 C168.2141,90.6403 168.2171,90.7963 168.2171,90.9403 L168.2171,98.4123 L166.6501,98.4123 L166.6501,86.8443 L167.9921,86.8443 C168.0711,86.8443 168.1401,86.8473 168.1971,86.8533 C168.2541,86.8573 168.3061,86.8713 168.3531,86.8933 C168.3991,86.9133 168.4421,86.9483 168.4821,86.9963 C168.5211,87.0443 168.5591,87.1083 168.5941,87.1893 L171.4501,93.6123 C171.5251,93.7833 171.5941,93.9603 171.6581,94.1453 L171.6581,94.1453 Z M133.8171,96.8283 C134.2191,96.8283 134.5671,96.7843 134.8651,96.6963 C135.1631,96.6083 135.4461,96.4873 135.7151,96.3323 L135.7151,94.2293 L134.5191,94.2293 C134.4031,94.2293 134.3141,94.1893 134.2471,94.1123 C134.1811,94.0353 134.1481,93.9403 134.1481,93.8283 L134.1481,92.6123 L137.3281,92.6123 L137.3281,97.2923 C137.0861,97.5063 136.8331,97.6903 136.5711,97.8483 C136.3091,98.0063 136.0291,98.1353 135.7321,98.2363 C135.4341,98.3383 135.1151,98.4133 134.7761,98.4643 C134.4371,98.5153 134.0701,98.5403 133.6791,98.5403 C132.9831,98.5403 132.3411,98.3943 131.7551,98.1013 C131.1681,97.8073 130.6611,97.3983 130.2341,96.8763 C129.8071,96.3543 129.4731,95.7303 129.2331,95.0043 C128.9921,94.2793 128.8721,93.4873 128.8721,92.6283 C128.8721,91.7593 128.9881,90.9623 129.2231,90.2363 C129.4561,89.5113 129.7871,88.8873 130.2181,88.3643 C130.6481,87.8423 131.1681,87.4373 131.7811,87.1483 C132.3941,86.8603 133.0811,86.7163 133.8441,86.7163 C134.6241,86.7163 135.3001,86.8563 135.8701,87.1363 C136.4421,87.4163 136.9251,87.7803 137.3211,88.2293 L136.8061,89.2043 C136.7041,89.4013 136.5701,89.5003 136.4021,89.5003 C136.2971,89.5003 136.1891,89.4573 136.0781,89.3723 C135.9381,89.2713 135.7931,89.1703 135.6461,89.0683 C135.4981,88.9673 135.3351,88.8793 135.1561,88.8043 C134.9781,88.7303 134.7771,88.6683 134.5551,88.6203 C134.3321,88.5723 134.0751,88.5483 133.7841,88.5483 C133.3131,88.5483 132.8861,88.6453 132.5051,88.8363 C132.1241,89.0283 131.7991,89.3033 131.5291,89.6603 C131.2611,90.0183 131.0541,90.4473 130.9081,90.9483 C130.7631,91.4493 130.6911,92.0103 130.6911,92.6283 C130.6911,93.2953 130.7671,93.8883 130.9221,94.4083 C131.0751,94.9283 131.2921,95.3673 131.5691,95.7243 C131.8471,96.0813 132.1781,96.3553 132.5621,96.5443 C132.9441,96.7333 133.3631,96.8283 133.8171,96.8283 L133.8171,96.8283 Z M119.4711,86.8443 L120.9051,86.8443 C121.0601,86.8443 121.1861,86.8903 121.2821,86.9813 C121.3791,87.0713 121.4521,87.1893 121.5011,87.3323 L123.7481,94.3883 C123.8231,94.6173 123.8951,94.8693 123.9631,95.1453 C124.0311,95.4193 124.0971,95.7083 124.1581,96.0123 C124.2601,95.3983 124.3861,94.8573 124.5351,94.3883 L126.7761,87.3323 C126.8171,87.2103 126.8871,87.0983 126.9881,86.9963 C127.0901,86.8953 127.2151,86.8443 127.3651,86.8443 L128.8001,86.8443 L124.9391,98.4123 L123.3321,98.4123 L119.4711,86.8443 Z M114.3541,94.0443 L117.4011,94.0443 L116.2371,90.1963 C116.1851,90.0253 116.1261,89.8243 116.0631,89.5923 C115.9981,89.3603 115.9361,89.1083 115.8741,88.8363 C115.8121,89.1083 115.7511,89.3613 115.6921,89.5963 C115.6331,89.8313 115.5741,90.0363 115.5171,90.2123 L114.3541,94.0443 Z M120.5411,98.4123 L119.1661,98.4123 C119.0121,98.4123 118.8861,98.3653 118.7861,98.2723 C118.6871,98.1793 118.6151,98.0633 118.5711,97.9243 L117.8581,95.5643 L113.8971,95.5643 L113.1831,97.9243 C113.1481,98.0473 113.0781,98.1593 112.9751,98.2603 C112.8711,98.3613 112.7441,98.4123 112.5951,98.4123 L111.2131,98.4123 L114.9681,86.8443 L116.7861,86.8443 L120.5411,98.4123 Z M75.4321,86.8563 C75.4841,86.8643 75.5321,86.8803 75.5741,86.9043 C75.6161,86.9283 75.6561,86.9633 75.6961,87.0083 C75.7361,87.0543 75.7801,87.1133 75.8281,87.1893 L80.8471,94.9243 C80.8291,94.7373 80.8171,94.5553 80.8111,94.3763 C80.8041,94.1973 80.8011,94.0313 80.8011,93.8763 L80.8011,86.8443 L82.3671,86.8443 L82.3671,98.4123 L81.4481,98.4123 C81.3081,98.4123 81.1911,98.3863 81.0981,98.3323 C81.0061,98.2793 80.9151,98.1833 80.8271,98.0443 L75.8281,90.3403 C75.8421,90.5113 75.8521,90.6803 75.8591,90.8483 C75.8651,91.0163 75.8681,91.1703 75.8681,91.3093 L75.8681,98.4123 L74.3011,98.4123 L74.3011,86.8443 L75.2341,86.8443 C75.3131,86.8443 75.3791,86.8483 75.4321,86.8563 L75.4321,86.8563 Z M70.3681,98.4123 L72.1531,98.4123 L72.1531,86.8443 L70.3681,86.8443 L70.3681,98.4123 Z M62.8601,94.1453 C62.9241,94.3283 62.9871,94.5143 63.0491,94.7003 C63.1101,94.5083 63.1751,94.3193 63.2401,94.1323 C63.3071,93.9453 63.3771,93.7673 63.4521,93.5963 L66.2821,87.1893 C66.3171,87.1083 66.3541,87.0443 66.3911,86.9963 C66.4291,86.9483 66.4711,86.9133 66.5171,86.8933 C66.5631,86.8713 66.6141,86.8573 66.6721,86.8533 C66.7301,86.8473 66.7981,86.8443 66.8771,86.8443 L68.2191,86.8443 L68.2191,98.4123 L66.6521,98.4123 L66.6521,90.9403 C66.6521,90.8023 66.6551,90.6493 66.6621,90.4843 C66.6691,90.3193 66.6791,90.1503 66.6921,89.9813 L63.8031,96.5403 C63.7361,96.6893 63.6511,96.8063 63.5451,96.8883 C63.4391,96.9713 63.3161,97.0123 63.1751,97.0123 L62.9301,97.0123 C62.7891,97.0123 62.6651,96.9713 62.5601,96.8883 C62.4541,96.8063 62.3681,96.6893 62.3021,96.5403 L59.3731,89.9563 C59.3911,90.1323 59.4021,90.3043 59.4091,90.4723 C59.4161,90.6403 59.4191,90.7963 59.4191,90.9403 L59.4191,98.4123 L57.8521,98.4123 L57.8521,86.8443 L59.1941,86.8443 C59.2741,86.8443 59.3421,86.8473 59.4001,86.8533 C59.4561,86.8573 59.5081,86.8713 59.5551,86.8933 C59.6011,86.9133 59.6441,86.9483 59.6841,86.9963 C59.7231,87.0443 59.7611,87.1083 59.7961,87.1893 L62.6521,93.6123 C62.7271,93.7833 62.7961,93.9603 62.8601,94.1453 L62.8601,94.1453 Z" id="Fill-10" fill="#000000"></path>
                </g>
            </g>
        </g>
    </g>
</svg>