<?xml version="1.0" encoding="UTF-8"?>
<svg width="175px" height="126px" viewBox="0 0 175 126" version="1.1" xmlns="http://www.w3.org/2000/svg" xmlns:xlink="http://www.w3.org/1999/xlink">
    <!-- Generator: Sketch 42 (36781) - http://www.bohemiancoding.com/sketch -->
    <title>peakCallDial</title>
    <desc>Created with Sketch.</desc>
    <defs></defs>
    <g id="Page-1" stroke="none" stroke-width="1" fill="none" fill-rule="evenodd">
        <g id="Desktop-HD-Copy" transform="translate(-1483.000000, -646.000000)">
            <g id="peakCallDial" transform="translate(1484.000000, 647.000000)">
                <path d="M111.0601,0.0538 L30.5131,0.0538 C13.6791,0.0538 0.0331,13.6998 0.0331,30.5328 C0.0331,47.3668 13.6791,61.0138 30.5131,61.0138 L49.2051,61.0138 C49.2001,61.3208 49.1811,61.6238 49.1811,61.9318 C49.1811,97.0748 78.4781,125.3758 113.9811,123.7428 C145.6821,122.2848 171.4121,96.5558 172.8711,64.8558 C174.5041,29.3518 146.2041,0.0538 111.0601,0.0538" id="Fill-31" stroke="#0073AE" stroke-width="2" fill="#000000" opacity="0.5"></path>
                <path d="M80.1821,30.1964 L74.3701,24.3844 L72.3681,26.3854 L78.1801,32.1984 L80.1821,30.1964 Z M81.6511,92.9284 L79.6491,90.9264 L73.8371,96.7394 L75.8391,98.7414 L81.6511,92.9284 Z M148.1941,95.2694 L142.3821,89.4574 L140.3801,91.4594 L146.1921,97.2714 L148.1941,95.2694 Z M146.7251,24.9164 L144.7231,22.9144 L138.9111,28.7264 L140.9121,30.7284 L146.7251,24.9164 Z M66.5621,56.9974 C66.5621,56.0604 66.0761,55.1254 65.0131,55.1254 C63.9511,55.1254 63.4651,56.0604 63.4651,56.9974 C63.4651,57.9154 63.7711,59.2654 65.0131,59.2654 C66.2551,59.2654 66.5621,57.9154 66.5621,56.9974 L66.5621,56.9974 Z M66.6881,63.2624 C66.6881,62.1464 66.5621,60.7064 65.0131,60.7064 C63.4651,60.7064 63.3381,62.1464 63.3381,63.2624 C63.3381,64.3434 63.7711,65.4964 65.0131,65.4964 C66.2551,65.4964 66.6881,64.3434 66.6881,63.2624 L66.6881,63.2624 Z M66.0391,60.0044 C67.8761,60.1844 68.3441,61.6254 68.3441,63.2454 C68.3441,65.4964 67.1921,66.8824 65.0131,66.8824 C62.8341,66.8824 61.6821,65.4964 61.6821,63.2454 C61.6821,61.6254 62.1511,60.1844 63.9871,60.0044 L63.9871,59.9864 C62.5101,59.6984 61.8081,58.4734 61.8081,57.0504 C61.8081,55.0894 63.0501,53.9184 65.0131,53.9184 C66.9761,53.9184 68.2181,55.0894 68.2181,57.0504 C68.2181,58.4734 67.5161,59.6984 66.0391,59.9864 L66.0391,60.0044 Z M58.2271,66.6124 L56.5711,66.6124 L56.5711,55.9344 L54.6991,57.1954 L54.6991,55.6104 C55.1131,55.4304 56.3011,54.5304 56.8051,54.1164 L58.2271,54.1164 L58.2271,66.6124 Z M111.4911,115.5084 L111.4911,114.0674 C115.1461,108.9544 116.2261,108.0174 116.2261,105.8574 C116.2261,104.8664 115.7401,104.2004 114.6771,104.2004 C113.4351,104.2004 113.2011,105.2264 113.2191,106.2354 L111.5271,106.2354 C111.3821,104.1644 112.4271,102.8144 114.5511,102.8144 C116.8021,102.8144 117.8821,103.8404 117.8821,106.0914 C117.8821,108.8824 116.4781,109.8184 113.2551,114.0674 L118.2061,114.0674 L118.2061,115.5084 L111.4911,115.5084 Z M107.9271,115.5084 L106.2711,115.5084 L106.2711,104.8314 L104.3991,106.0914 L104.3991,104.5074 C104.8131,104.3264 106.0011,103.4254 106.5051,103.0114 L107.9271,103.0114 L107.9271,115.5084 Z M163.2071,65.1694 C164.5581,65.1694 164.7911,63.6924 164.7911,62.0534 C164.7911,60.9194 164.5391,59.5334 163.0991,59.5334 C161.6411,59.5334 161.4431,61.1174 161.4431,62.2334 C161.4431,63.4754 161.6051,65.1694 163.2071,65.1694 L163.2071,65.1694 Z M159.7501,60.0914 C159.7501,56.7234 159.6961,53.5914 163.1181,53.5914 C164.9901,53.5914 166.2861,54.7434 166.2141,56.6334 L164.5581,56.6334 C164.5581,55.7694 164.0891,54.7984 163.0991,54.7984 C161.7481,54.7984 161.4071,55.9854 161.4071,59.3164 L161.4431,59.3164 C161.8571,58.5964 162.6131,58.1464 163.4771,58.1464 C165.0791,58.1464 166.4481,59.0834 166.4481,62.3424 C166.4481,64.5744 165.5481,66.5544 163.1181,66.5544 C159.7321,66.5544 159.7501,63.3494 159.7501,60.0914 L159.7501,60.0914 Z M153.3971,60.4154 C153.3971,62.5214 153.2701,65.1694 155.1071,65.1694 C156.9441,65.1694 156.8181,62.5214 156.8181,60.4154 C156.8181,57.0484 156.7991,54.9774 155.1071,54.9774 C153.4141,54.9774 153.3971,57.0484 153.3971,60.4154 L153.3971,60.4154 Z M158.4741,60.0914 C158.4741,63.3494 158.4921,66.5544 155.1071,66.5544 C151.7221,66.5544 151.7401,63.3494 151.7401,60.0914 C151.7401,56.7234 151.6861,53.5914 155.1071,53.5914 C158.5281,53.5914 158.4741,56.7234 158.4741,60.0914 L158.4741,60.0914 Z M115.0161,14.3124 L115.0161,7.8124 L114.9811,7.8124 L112.2801,14.3124 L115.0161,14.3124 Z M110.8391,15.7534 L110.8391,14.3124 L114.3691,6.3004 L116.5651,6.3004 L116.5651,14.3124 L118.0411,14.3124 L118.0411,15.7534 L116.5651,15.7534 L116.5651,18.7964 L115.0161,18.7964 L115.0161,15.7534 L110.8391,15.7534 Z M103.1711,18.7964 L103.1711,17.3554 C106.8271,12.2414 107.9071,11.3054 107.9071,9.1444 C107.9071,8.1544 107.4201,7.4884 106.3581,7.4884 C105.1161,7.4884 104.8811,8.5144 104.9001,9.5224 L103.2071,9.5224 C103.0631,7.4524 104.1081,6.1014 106.2321,6.1014 C108.4831,6.1014 109.5631,7.1284 109.5631,9.3794 C109.5631,12.1704 108.1591,13.1054 104.9361,17.3554 L109.8871,17.3554 L109.8871,18.7964 L103.1711,18.7964 Z" id="Fill-32" fill="#FF8800"></path>
                <path d="M48.7017,29.8585 C48.7017,40.7945 39.8367,49.6595 28.9007,49.6595 C17.9657,49.6595 9.0997,40.7945 9.0997,29.8585 C9.0997,18.9215 17.9657,10.0565 28.9007,10.0565 C39.8367,10.0565 48.7017,18.9215 48.7017,29.8585 Z" id="Stroke-33" stroke="#0073AE"></path>
            </g>
        </g>
    </g>
</svg>