<?xml version="1.0" encoding="UTF-8"?>
<svg width="397px" height="232px" viewBox="0 0 397 232" version="1.1" xmlns="http://www.w3.org/2000/svg" xmlns:xlink="http://www.w3.org/1999/xlink">
    <!-- Generator: Sketch 42 (36781) - http://www.bohemiancoding.com/sketch -->
    <title>percentages</title>
    <desc>Created with Sketch.</desc>
    <defs>
        <polygon id="path-1" points="0 231.962898 0 0.6975 396.447702 0.6975 396.447702 231.962898 1.69300609e-14 231.962898"></polygon>
    </defs>
    <g id="Page-1" stroke="none" stroke-width="1" fill="none" fill-rule="evenodd">
        <g id="Desktop-HD-Copy" transform="translate(-80.000000, -503.000000)">
            <g id="percentages" transform="translate(80.000000, 502.340000)">
                <mask id="mask-2" fill="white">
                    <use xlink:href="#path-1"></use>
                </mask>
                <g id="Clip-11"></g>
                <path d="M286.9897,0.7695 C286.3387,0.7275 285.6837,0.6975 285.0217,0.6975 L12.4307,0.6975 C5.5657,0.6975 -0.0003,6.3795 -0.0003,13.3895 L-0.0003,96.2035 C-0.0003,113.2745 13.5557,127.1145 30.2777,127.1145 L170.4157,127.1145 C175.8037,186.5965 225.3147,233.0225 285.2257,231.9445 C347.2847,230.8295 396.4587,179.6755 396.4477,116.3095 C396.4357,53.7575 347.7737,2.8195 286.9897,0.7695" id="Fill-10" stroke="#0073AE" stroke-width="2" fill="#000000" opacity="0.5" mask="url(#mask-2)"></path>
                <path d="M283.1851,189.6699 C243.5951,189.6699 211.3951,156.7699 211.3951,116.3299 C211.3951,75.8899 243.5951,42.9899 283.1851,42.9899 C322.7761,42.9899 354.9751,75.8899 354.9751,116.3299 C354.9751,156.7699 322.7761,189.6699 283.1851,189.6699 L283.1851,189.6699 Z M283.1851,17.6499 C229.8661,17.6499 186.4851,61.9199 186.4851,116.3299 C186.4851,170.7399 229.8661,215.0099 283.1851,215.0099 C336.5051,215.0099 379.8851,170.7399 379.8851,116.3299 C379.8851,61.9199 336.5051,17.6499 283.1851,17.6499 L283.1851,17.6499 Z M304.3951,110.6789 C304.3951,109.1249 304.2441,107.8249 303.9431,106.7799 C303.6401,105.7349 303.2341,104.8919 302.7221,104.2479 C302.2101,103.6059 301.6061,103.1439 300.9121,102.8619 C300.2151,102.5809 299.4741,102.4409 298.6871,102.4409 C297.9001,102.4409 297.1641,102.5809 296.4831,102.8619 C295.8001,103.1439 295.2161,103.6059 294.7311,104.2479 C294.2451,104.8919 293.8581,105.7349 293.5701,106.7799 C293.2811,107.8249 293.1361,109.1249 293.1361,110.6789 C293.1361,112.1799 293.2811,113.4389 293.5701,114.4569 C293.8581,115.4759 294.2451,116.2919 294.7311,116.9079 C295.2161,117.5249 295.8001,117.9669 296.4831,118.2339 C297.1641,118.5029 297.9001,118.6369 298.6871,118.6369 C299.4741,118.6369 300.2151,118.5029 300.9121,118.2339 C301.6061,117.9669 302.2101,117.5249 302.7221,116.9079 C303.2341,116.2919 303.6401,115.4759 303.9431,114.4569 C304.2441,113.4389 304.3951,112.1799 304.3951,110.6789 L304.3951,110.6789 Z M311.8751,110.6789 C311.8751,112.8759 311.5141,114.8579 310.7921,116.6269 C310.0711,118.3959 309.1061,119.9019 307.8991,121.1489 C306.6921,122.3949 305.2881,123.3589 303.6871,124.0419 C302.0851,124.7259 300.4191,125.0669 298.6871,125.0669 C296.7971,125.0669 295.0521,124.7259 293.4521,124.0419 C291.8501,123.3589 290.4651,122.3949 289.2981,121.1489 C288.1301,119.9019 287.2181,118.3959 286.5621,116.6269 C285.9061,114.8579 285.5781,112.8759 285.5781,110.6789 C285.5781,108.4289 285.9061,106.3929 286.5621,104.5699 C287.2181,102.7479 288.1301,101.2079 289.2981,99.9479 C290.4651,98.6899 291.8501,97.7179 293.4521,97.0339 C295.0521,96.3519 296.7971,96.0099 298.6871,96.0099 C300.5771,96.0099 302.3291,96.3519 303.9431,97.0339 C305.5571,97.7179 306.9551,98.6899 308.1351,99.9479 C309.3161,101.2079 310.2351,102.7479 310.8911,104.5699 C311.5461,106.3929 311.8751,108.4289 311.8751,110.6789 L311.8751,110.6789 Z M272.2331,80.2949 C272.2331,78.7409 272.0881,77.4409 271.7991,76.3969 C271.5101,75.3519 271.1111,74.5079 270.5991,73.8639 C270.0871,73.2219 269.4831,72.7599 268.7881,72.4779 C268.0921,72.1959 267.3511,72.0559 266.5641,72.0559 C265.7771,72.0559 265.0411,72.1959 264.3591,72.4779 C263.6761,72.7599 263.0861,73.2219 262.5871,73.8639 C262.0881,74.5079 261.7021,75.3519 261.4261,76.3969 C261.1511,77.4409 261.0131,78.7409 261.0131,80.2949 C261.0131,81.7959 261.1511,83.0479 261.4261,84.0529 C261.7021,85.0579 262.0881,85.8679 262.5871,86.4839 C263.0861,87.1009 263.6761,87.5429 264.3591,87.8109 C265.0411,88.0789 265.7771,88.2129 266.5641,88.2129 C267.3511,88.2129 268.0921,88.0789 268.7881,87.8109 C269.4831,87.5429 270.0871,87.1009 270.5991,86.4839 C271.1111,85.8679 271.5101,85.0579 271.7991,84.0529 C272.0881,83.0479 272.2331,81.7959 272.2331,80.2949 L272.2331,80.2949 Z M298.6871,67.7959 C299.0021,67.3939 299.3961,67.0319 299.8681,66.7109 C300.3401,66.3889 300.9971,66.2289 301.8361,66.2289 L308.8831,66.2289 L266.6031,122.8569 C266.2891,123.2849 265.8881,123.6409 265.4031,123.9219 C264.9161,124.2029 264.3321,124.3439 263.6511,124.3439 L256.4071,124.3439 L298.6871,67.7959 Z M279.7511,80.2949 C279.7511,82.4919 279.3901,84.4749 278.6691,86.2429 C277.9471,88.0119 276.9831,89.5189 275.7761,90.7649 C274.5681,92.0109 273.1641,92.9689 271.5631,93.6389 C269.9621,94.3089 268.2961,94.6429 266.5641,94.6429 C264.6741,94.6429 262.9281,94.3089 261.3281,93.6389 C259.7271,92.9689 258.3421,92.0109 257.1741,90.7649 C256.0061,89.5189 255.0941,88.0119 254.4391,86.2429 C253.7831,84.4749 253.4551,82.4919 253.4551,80.2949 C253.4551,78.0439 253.7831,76.0089 254.4391,74.1869 C255.0941,72.3639 256.0061,70.8239 257.1741,69.5649 C258.3421,68.3049 259.7271,67.3339 261.3281,66.6499 C262.9281,65.9669 264.6741,65.6249 266.5641,65.6249 C268.4541,65.6249 270.2061,65.9669 271.8191,66.6499 C273.4331,67.3339 274.8311,68.3049 276.0121,69.5649 C277.1931,70.8239 278.1111,72.3639 278.7671,74.1869 C279.4231,76.0089 279.7511,78.0439 279.7511,80.2949 L279.7511,80.2949 Z M324.0461,155.0889 C323.6731,155.0889 323.3811,155.1959 323.1701,155.4109 C322.9601,155.6259 322.8261,155.9319 322.7671,156.3259 L325.1701,156.3259 C325.1701,156.1569 325.1481,155.9969 325.1031,155.8479 C325.0581,155.6979 324.9891,155.5659 324.8961,155.4539 C324.8021,155.3409 324.6851,155.2519 324.5431,155.1869 C324.4021,155.1209 324.2361,155.0889 324.0461,155.0889 L324.0461,155.0889 Z M324.0201,154.1519 C324.3551,154.1519 324.6641,154.2069 324.9451,154.3159 C325.2261,154.4259 325.4681,154.5859 325.6721,154.7949 C325.8761,155.0049 326.0351,155.2629 326.1491,155.5669 C326.2631,155.8719 326.3201,156.2209 326.3201,156.6109 C326.3201,156.7109 326.3161,156.7929 326.3071,156.8569 C326.2981,156.9229 326.2831,156.9739 326.2601,157.0109 C326.2381,157.0479 326.2071,157.0739 326.1691,157.0909 C326.1311,157.1069 326.0831,157.1139 326.0251,157.1139 L322.7411,157.1139 C322.7791,157.6709 322.9251,158.0799 323.1811,158.3409 C323.4361,158.6019 323.7751,158.7329 324.1961,158.7329 C324.4041,158.7329 324.5821,158.7079 324.7321,158.6579 C324.8821,158.6089 325.0141,158.5549 325.1261,158.4939 C325.2381,158.4349 325.3361,158.3799 325.4211,158.3299 C325.5061,158.2809 325.5871,158.2569 325.6671,158.2569 C325.7191,158.2569 325.7641,158.2669 325.8021,158.2879 C325.8401,158.3099 325.8731,158.3389 325.9011,158.3779 L326.2731,158.8539 C326.1311,159.0239 325.9731,159.1649 325.7961,159.2789 C325.6211,159.3949 325.4371,159.4859 325.2461,159.5549 C325.0531,159.6229 324.8581,159.6719 324.6601,159.6999 C324.4611,159.7289 324.2691,159.7419 324.0821,159.7419 C323.7121,159.7419 323.3701,159.6799 323.0511,159.5549 C322.7341,159.4299 322.4571,159.2439 322.2231,158.9989 C321.9881,158.7549 321.8031,158.4509 321.6681,158.0899 C321.5341,157.7289 321.4661,157.3099 321.4661,156.8339 C321.4661,156.4639 321.5251,156.1149 321.6431,155.7889 C321.7601,155.4639 321.9281,155.1799 322.1481,154.9389 C322.3671,154.6959 322.6341,154.5049 322.9511,154.3639 C323.2661,154.2239 323.6231,154.1519 324.0201,154.1519 L324.0201,154.1519 Z M312.5831,159.6629 L312.5831,154.2369 L313.3661,154.2369 C313.5321,154.2369 313.6401,154.3159 313.6921,154.4759 L313.7751,154.8769 C313.8691,154.7719 313.9651,154.6749 314.0681,154.5859 C314.1691,154.4979 314.2781,154.4229 314.3941,154.3589 C314.5091,154.2959 314.6341,154.2449 314.7671,154.2079 C314.9001,154.1709 315.0451,154.1519 315.2051,154.1519 C315.5391,154.1519 315.8151,154.2449 316.0311,154.4309 C316.2471,154.6149 316.4081,154.8609 316.5151,155.1679 C316.5981,154.9879 316.7021,154.8339 316.8261,154.7049 C316.9511,154.5769 317.0861,154.4719 317.2351,154.3909 C317.3831,154.3099 317.5411,154.2499 317.7091,154.2109 C317.8761,154.1719 318.0441,154.1519 318.2141,154.1519 C318.5071,154.1519 318.7681,154.1979 318.9971,154.2899 C319.2241,154.3819 319.4151,154.5159 319.5711,154.6919 C319.7271,154.8679 319.8451,155.0829 319.9261,155.3369 C320.0071,155.5909 320.0471,155.8819 320.0471,156.2099 L320.0471,159.6629 L318.7681,159.6629 L318.7681,156.2099 C318.7681,155.8639 318.6941,155.6049 318.5451,155.4299 C318.3971,155.2549 318.1791,155.1679 317.8931,155.1679 C317.7611,155.1679 317.6401,155.1909 317.5281,155.2369 C317.4151,155.2819 317.3171,155.3489 317.2331,155.4359 C317.1481,155.5219 317.0811,155.6299 317.0331,155.7609 C316.9851,155.8909 316.9601,156.0409 316.9601,156.2099 L316.9601,159.6629 L315.6761,159.6629 L315.6761,156.2099 C315.6761,155.8469 315.6041,155.5819 315.4611,155.4169 C315.3181,155.2509 315.1061,155.1679 314.8271,155.1679 C314.6431,155.1679 314.4721,155.2149 314.3111,155.3089 C314.1511,155.4009 314.0011,155.5289 313.8631,155.6909 L313.8631,159.6629 L312.5831,159.6629 Z M307.3461,154.2369 L307.3461,157.6859 C307.3461,158.0169 307.4211,158.2739 307.5721,158.4549 C307.7211,158.6369 307.9471,158.7279 308.2471,158.7279 C308.4681,158.7279 308.6751,158.6769 308.8691,158.5759 C309.0621,158.4759 309.2461,158.3379 309.4181,158.1609 L309.4181,154.2369 L310.6981,154.2369 L310.6981,159.6629 L309.9151,159.6629 C309.7491,159.6629 309.6411,159.5839 309.5891,159.4249 L309.5001,158.9909 C309.3901,159.1049 309.2771,159.2069 309.1591,159.3009 C309.0411,159.3949 308.9161,159.4739 308.7841,159.5389 C308.6511,159.6049 308.5071,159.6549 308.3541,159.6919 C308.2001,159.7299 308.0351,159.7479 307.8591,159.7479 C307.5691,159.7479 307.3121,159.6969 307.0891,159.5969 C306.8671,159.4959 306.6791,159.3549 306.5281,159.1709 C306.3751,158.9879 306.2611,158.7709 306.1831,158.5189 C306.1061,158.2669 306.0671,157.9879 306.0671,157.6859 L306.0671,154.2369 L307.3461,154.2369 Z M302.9331,159.6629 L304.2121,159.6629 L304.2121,151.8049 L302.9331,151.8049 L302.9331,159.6629 Z M298.7111,158.7369 C299.1541,158.7369 299.4811,158.5859 299.6941,158.2829 C299.9061,157.9799 300.0121,157.5349 300.0121,156.9499 C300.0121,156.3649 299.9061,155.9189 299.6941,155.6119 C299.4811,155.3059 299.1541,155.1519 298.7111,155.1519 C298.2631,155.1519 297.9311,155.3069 297.7171,155.6149 C297.5031,155.9239 297.3961,156.3679 297.3961,156.9499 C297.3961,157.5319 297.5031,157.9759 297.7171,158.2799 C297.9311,158.5849 298.2631,158.7369 298.7111,158.7369 L298.7111,158.7369 Z M298.7111,154.1519 C299.1091,154.1519 299.4691,154.2179 299.7911,154.3489 C300.1151,154.4789 300.3901,154.6639 300.6181,154.9029 C300.8461,155.1439 301.0221,155.4369 301.1461,155.7809 C301.2711,156.1269 301.3321,156.5129 301.3321,156.9399 C301.3321,157.3699 301.2711,157.7579 301.1461,158.1039 C301.0221,158.4479 300.8461,158.7429 300.6181,158.9859 C300.3901,159.2299 300.1151,159.4159 299.7911,159.5469 C299.4691,159.6769 299.1091,159.7419 298.7111,159.7419 C298.3151,159.7419 297.9541,159.6769 297.6291,159.5469 C297.3041,159.4159 297.0281,159.2299 296.7971,158.9859 C296.5681,158.7429 296.3901,158.4479 296.2641,158.1039 C296.1381,157.7579 296.0761,157.3699 296.0761,156.9399 C296.0761,156.5129 296.1381,156.1269 296.2641,155.7809 C296.3901,155.4369 296.5681,155.1439 296.7971,154.9029 C297.0281,154.6639 297.3041,154.4789 297.6291,154.3489 C297.9541,154.2179 298.3151,154.1519 298.7111,154.1519 L298.7111,154.1519 Z M293.2311,159.6629 L292.0711,159.6629 L289.9571,154.2369 L291.0201,154.2369 C291.1131,154.2369 291.1911,154.2609 291.2551,154.3059 C291.3191,154.3519 291.3631,154.4099 291.3871,154.4809 L292.4131,157.3789 C292.4721,157.5479 292.5211,157.7139 292.5611,157.8759 C292.6001,158.0379 292.6361,158.1999 292.6661,158.3619 C292.6981,158.1999 292.7331,158.0379 292.7731,157.8759 C292.8131,157.7139 292.8641,157.5479 292.9261,157.3789 L293.9771,154.4809 C294.0011,154.4099 294.0441,154.3519 294.1071,154.3059 C294.1691,154.2609 294.2441,154.2369 294.3301,154.2369 L295.3391,154.2369 L293.2311,159.6629 Z M284.8091,159.6629 L286.0881,159.6629 L286.0881,151.8049 L284.8091,151.8049 L284.8091,159.6629 Z M281.4841,159.6629 L282.7631,159.6629 L282.7631,151.8049 L281.4841,151.8049 L281.4841,159.6629 Z M277.1381,158.8489 C277.2691,158.8489 277.3901,158.8369 277.5001,158.8129 C277.6111,158.7879 277.7151,158.7519 277.8141,158.7029 C277.9131,158.6539 278.0071,158.5949 278.0991,158.5239 C278.1901,158.4519 278.2831,158.3679 278.3751,158.2709 L278.3751,157.3619 C278.0021,157.3619 277.6911,157.3869 277.4411,157.4349 C277.1911,157.4819 276.9901,157.5439 276.8371,157.6179 C276.6851,157.6929 276.5781,157.7799 276.5141,157.8789 C276.4501,157.9789 276.4171,158.0869 276.4171,158.2039 C276.4171,158.4359 276.4841,158.6009 276.6181,158.6989 C276.7501,158.7989 276.9231,158.8489 277.1381,158.8489 L277.1381,158.8489 Z M279.6241,159.6629 L279.0491,159.6629 C278.9281,159.6629 278.8331,159.6449 278.7641,159.6079 C278.6951,159.5699 278.6431,159.4959 278.6091,159.3829 L278.4951,158.9969 C278.3601,159.1199 278.2281,159.2289 278.0991,159.3219 C277.9691,159.4149 277.8351,159.4939 277.6981,159.5579 C277.5591,159.6209 277.4131,159.6679 277.2571,159.6999 C277.1021,159.7319 276.9291,159.7479 276.7391,159.7479 C276.5141,159.7479 276.3071,159.7169 276.1181,159.6549 C275.9271,159.5929 275.7641,159.4999 275.6281,159.3759 C275.4921,159.2529 275.3851,159.0989 275.3091,158.9149 C275.2341,158.7309 275.1961,158.5169 275.1961,158.2729 C275.1961,158.0669 275.2481,157.8649 275.3531,157.6649 C275.4581,157.4659 275.6341,157.2849 275.8791,157.1239 C276.1241,156.9629 276.4511,156.8289 276.8581,156.7239 C277.2651,156.6169 277.7721,156.5649 278.3751,156.5649 L278.3751,156.2439 C278.3751,155.8789 278.3001,155.6069 278.1511,155.4319 C278.0001,155.2559 277.7821,155.1679 277.4961,155.1679 C277.2891,155.1679 277.1161,155.1919 276.9771,155.2419 C276.8391,155.2919 276.7191,155.3469 276.6181,155.4089 C276.5151,155.4709 276.4211,155.5259 276.3351,155.5749 C276.2481,155.6249 276.1541,155.6489 276.0501,155.6489 C275.9631,155.6489 275.8891,155.6259 275.8281,155.5809 C275.7651,155.5349 275.7151,155.4789 275.6771,155.4109 L275.4441,154.9929 C276.0551,154.4229 276.7921,154.1369 277.6561,154.1369 C277.9661,154.1369 278.2441,154.1889 278.4871,154.2929 C278.7311,154.3969 278.9371,154.5409 279.1061,154.7269 C279.2751,154.9119 279.4041,155.1329 279.4921,155.3909 C279.5811,155.6479 279.6241,155.9299 279.6241,156.2359 L279.6241,159.6629 Z M273.7351,155.3849 C273.6981,155.4349 273.6611,155.4729 273.6231,155.5009 C273.5871,155.5289 273.5351,155.5439 273.4661,155.5439 C273.4001,155.5439 273.3361,155.5239 273.2741,155.4819 C273.2121,155.4419 273.1381,155.3969 273.0511,155.3459 C272.9651,155.2939 272.8631,155.2479 272.7441,155.2079 C272.6241,155.1669 272.4771,155.1469 272.3001,155.1469 C272.0761,155.1469 271.8791,155.1889 271.7101,155.2719 C271.5401,155.3549 271.4001,155.4729 271.2881,155.6279 C271.1751,155.7829 271.0921,155.9709 271.0371,156.1909 C270.9811,156.4119 270.9541,156.6609 270.9541,156.9399 C270.9541,157.2289 270.9841,157.4859 271.0441,157.7119 C271.1051,157.9379 271.1921,158.1269 271.3061,158.2799 C271.4191,158.4339 271.5581,158.5499 271.7201,158.6289 C271.8821,158.7089 272.0661,158.7479 272.2691,158.7479 C272.4731,158.7479 272.6381,158.7229 272.7641,158.6719 C272.8901,158.6199 272.9971,158.5649 273.0821,158.5019 C273.1681,158.4409 273.2441,158.3839 273.3081,158.3329 C273.3721,158.2819 273.4441,158.2569 273.5231,158.2569 C273.6261,158.2569 273.7051,158.2969 273.7561,158.3779 L274.1231,158.8539 C273.9821,159.0239 273.8291,159.1649 273.6631,159.2789 C273.4971,159.3949 273.3261,159.4859 273.1471,159.5549 C272.9691,159.6229 272.7861,159.6719 272.5961,159.6999 C272.4061,159.7289 272.2171,159.7419 272.0311,159.7419 C271.7031,159.7419 271.3941,159.6799 271.1041,159.5549 C270.8141,159.4299 270.5611,159.2469 270.3451,159.0079 C270.1291,158.7679 269.9581,158.4749 269.8321,158.1269 C269.7061,157.7789 269.6431,157.3839 269.6431,156.9399 C269.6431,156.5409 269.7001,156.1719 269.8121,155.8319 C269.9231,155.4909 270.0881,155.1969 270.3061,154.9479 C270.5241,154.6999 270.7931,154.5049 271.1151,154.3639 C271.4351,154.2239 271.8051,154.1519 272.2231,154.1519 C272.6201,154.1519 272.9681,154.2179 273.2661,154.3489 C273.5651,154.4789 273.8331,154.6659 274.0721,154.9089 L273.7351,155.3849 Z M264.2411,159.6629 L265.5201,159.6629 L265.5201,151.8049 L264.2411,151.8049 L264.2411,159.6629 Z M259.8951,158.8489 C260.0261,158.8489 260.1471,158.8369 260.2571,158.8129 C260.3681,158.7879 260.4721,158.7519 260.5711,158.7029 C260.6691,158.6539 260.7641,158.5949 260.8561,158.5239 C260.9471,158.4519 261.0391,158.3679 261.1321,158.2709 L261.1321,157.3619 C260.7591,157.3619 260.4481,157.3869 260.1981,157.4349 C259.9481,157.4819 259.7471,157.5439 259.5941,157.6179 C259.4421,157.6929 259.3341,157.7799 259.2711,157.8789 C259.2061,157.9789 259.1741,158.0869 259.1741,158.2039 C259.1741,158.4359 259.2411,158.6009 259.3741,158.6989 C259.5071,158.7989 259.6801,158.8489 259.8951,158.8489 L259.8951,158.8489 Z M262.3811,159.6629 L261.8061,159.6629 C261.6851,159.6629 261.5901,159.6449 261.5211,159.6079 C261.4521,159.5699 261.4001,159.4959 261.3661,159.3829 L261.2511,158.9969 C261.1171,159.1199 260.9851,159.2289 260.8561,159.3219 C260.7261,159.4149 260.5921,159.4939 260.4551,159.5579 C260.3161,159.6209 260.1691,159.6679 260.0141,159.6999 C259.8591,159.7319 259.6861,159.7479 259.4961,159.7479 C259.2711,159.7479 259.0641,159.7169 258.8741,159.6549 C258.6841,159.5929 258.5211,159.4999 258.3851,159.3759 C258.2481,159.2529 258.1421,159.0989 258.0661,158.9149 C257.9911,158.7309 257.9531,158.5169 257.9531,158.2729 C257.9531,158.0669 258.0051,157.8649 258.1101,157.6649 C258.2151,157.4659 258.3911,157.2849 258.6361,157.1239 C258.8811,156.9629 259.2071,156.8289 259.6151,156.7239 C260.0221,156.6169 260.5291,156.5649 261.1321,156.5649 L261.1321,156.2439 C261.1321,155.8789 261.0571,155.6069 260.9081,155.4319 C260.7571,155.2559 260.5391,155.1679 260.2521,155.1679 C260.0451,155.1679 259.8731,155.1919 259.7341,155.2419 C259.5961,155.2919 259.4761,155.3469 259.3741,155.4089 C259.2721,155.4709 259.1781,155.5259 259.0921,155.5749 C259.0051,155.6249 258.9111,155.6489 258.8071,155.6489 C258.7201,155.6489 258.6461,155.6259 258.5841,155.5809 C258.5221,155.5349 258.4721,155.4789 258.4341,155.4109 L258.2011,154.9929 C258.8121,154.4229 259.5491,154.1369 260.4131,154.1369 C260.7231,154.1369 261.0001,154.1889 261.2441,154.2929 C261.4881,154.3969 261.6941,154.5409 261.8631,154.7269 C262.0321,154.9119 262.1611,155.1329 262.2481,155.3909 C262.3371,155.6479 262.3811,155.9299 262.3811,156.2359 L262.3811,159.6629 Z M255.4351,159.7479 C254.9751,159.7479 254.6221,159.6139 254.3731,159.3489 C254.1241,159.0819 253.9991,158.7149 253.9991,158.2459 L253.9991,155.2159 L253.4611,155.2159 C253.3921,155.2159 253.3321,155.1919 253.2831,155.1469 C253.2321,155.1019 253.2071,155.0319 253.2071,154.9409 L253.2071,154.4229 L254.0621,154.2789 L254.3311,152.7989 C254.3451,152.7289 254.3771,152.6739 254.4271,152.6349 C254.4771,152.5969 254.5401,152.5769 254.6171,152.5769 L255.2801,152.5769 L255.2801,154.2849 L256.6781,154.2849 L256.6781,155.2159 L255.2801,155.2159 L255.2801,158.1559 C255.2801,158.3249 255.3211,158.4569 255.4041,158.5529 C255.4871,158.6479 255.5971,158.6949 255.7351,158.6949 C255.8151,158.6949 255.8811,158.6859 255.9351,158.6659 C255.9881,158.6469 256.0351,158.6269 256.0751,158.6059 C256.1141,158.5839 256.1501,158.5649 256.1801,158.5449 C256.2111,158.5249 256.2431,158.5159 256.2741,158.5159 C256.3121,158.5159 256.3431,158.5249 256.3671,158.5449 C256.3911,158.5649 256.4171,158.5929 256.4451,158.6319 L256.8281,159.2669 C256.6421,159.4249 256.4271,159.5449 256.1861,159.6259 C255.9441,159.7069 255.6941,159.7479 255.4351,159.7479 L255.4351,159.7479 Z M249.5501,158.7369 C249.9931,158.7369 250.3201,158.5859 250.5331,158.2829 C250.7451,157.9799 250.8511,157.5349 250.8511,156.9499 C250.8511,156.3649 250.7451,155.9189 250.5331,155.6119 C250.3201,155.3059 249.9931,155.1519 249.5501,155.1519 C249.1021,155.1519 248.7701,155.3069 248.5561,155.6149 C248.3421,155.9239 248.2351,156.3679 248.2351,156.9499 C248.2351,157.5319 248.3421,157.9759 248.5561,158.2799 C248.7701,158.5849 249.1021,158.7369 249.5501,158.7369 L249.5501,158.7369 Z M249.5501,154.1519 C249.9481,154.1519 250.3081,154.2179 250.6301,154.3489 C250.9541,154.4789 251.2291,154.6639 251.4561,154.9029 C251.6851,155.1439 251.8611,155.4369 251.9851,155.7809 C252.1101,156.1269 252.1711,156.5129 252.1711,156.9399 C252.1711,157.3699 252.1101,157.7579 251.9851,158.1039 C251.8611,158.4479 251.6851,158.7429 251.4561,158.9859 C251.2291,159.2299 250.9541,159.4159 250.6301,159.5469 C250.3081,159.6769 249.9481,159.7419 249.5501,159.7419 C249.1541,159.7419 248.7921,159.6769 248.4681,159.5469 C248.1431,159.4159 247.8671,159.2299 247.6361,158.9859 C247.4071,158.7429 247.2291,158.4479 247.1031,158.1039 C246.9771,157.7579 246.9151,157.3699 246.9151,156.9399 C246.9151,156.5129 246.9771,156.1269 247.1031,155.7809 C247.2291,155.4369 247.4071,155.1439 247.6361,154.9029 C247.8671,154.6639 248.1431,154.4789 248.4681,154.3489 C248.7921,154.2179 249.1541,154.1519 249.5501,154.1519 L249.5501,154.1519 Z M244.5001,159.7479 C244.0401,159.7479 243.6871,159.6139 243.4381,159.3489 C243.1901,159.0819 243.0651,158.7149 243.0651,158.2459 L243.0651,155.2159 L242.5271,155.2159 C242.4571,155.2159 242.3981,155.1919 242.3481,155.1469 C242.2971,155.1019 242.2731,155.0319 242.2731,154.9409 L242.2731,154.4229 L243.1271,154.2789 L243.3971,152.7989 C243.4111,152.7289 243.4431,152.6739 243.4931,152.6349 C243.5421,152.5969 243.6061,152.5769 243.6821,152.5769 L244.3451,152.5769 L244.3451,154.2849 L245.7441,154.2849 L245.7441,155.2159 L244.3451,155.2159 L244.3451,158.1559 C244.3451,158.3249 244.3861,158.4569 244.4691,158.5529 C244.5521,158.6479 244.6631,158.6949 244.8001,158.6949 C244.8801,158.6949 244.9471,158.6859 245.0001,158.6659 C245.0531,158.6469 245.1001,158.6269 245.1401,158.6059 C245.1791,158.5839 245.2151,158.5649 245.2461,158.5449 C245.2771,158.5249 245.3081,158.5159 245.3391,158.5159 C245.3771,158.5159 245.4091,158.5249 245.4321,158.5449 C245.4561,158.5649 245.4831,158.5929 245.5101,158.6319 L245.8931,159.2669 C245.7071,159.4249 245.4931,159.5449 245.2511,159.6259 C245.0091,159.7069 244.7591,159.7479 244.5001,159.7479 L244.5001,159.7479 Z M322.2121,141.5899 L322.2121,147.5339 L319.4251,147.5339 L319.4251,141.5899 L313.9661,132.2399 L316.4211,132.2399 C316.6631,132.2399 316.8551,132.3009 316.9971,132.4209 C317.1381,132.5399 317.2571,132.6919 317.3541,132.8749 L320.0991,137.9829 C320.2571,138.2869 320.3961,138.5739 320.5131,138.8459 C320.6301,139.1169 320.7381,139.3839 320.8341,139.6449 C320.9241,139.3759 321.0261,139.1069 321.1401,138.8349 C321.2541,138.5639 321.3901,138.2799 321.5491,137.9829 L324.2741,132.8749 C324.3501,132.7209 324.4631,132.5749 324.6161,132.4409 C324.7681,132.3079 324.9611,132.2399 325.1961,132.2399 L327.6621,132.2399 L322.2121,141.5899 Z M308.9411,145.1869 L314.9401,145.1869 L314.9401,147.5339 L306.1551,147.5339 L306.1551,132.2399 L308.9411,132.2399 L308.9411,145.1869 Z M293.5371,138.6499 L294.1891,138.6499 C294.4521,138.6499 294.6691,138.6129 294.8421,138.5389 C295.0141,138.4649 295.1631,138.3469 295.2881,138.1849 L299.4201,132.8439 C299.5931,132.6179 299.7751,132.4609 299.9641,132.3729 C300.1551,132.2849 300.3951,132.2399 300.6851,132.2399 L303.0881,132.2399 L298.0431,138.5969 C297.8841,138.7949 297.7321,138.9599 297.5871,139.0939 C297.4421,139.2289 297.2871,139.3379 297.1211,139.4219 C297.3491,139.5069 297.5541,139.6269 297.7381,139.7809 C297.9201,139.9369 298.0981,140.1349 298.2711,140.3739 L303.4711,147.5339 L301.0061,147.5339 C300.6741,147.5339 300.4271,147.4859 300.2651,147.3919 C300.1031,147.2959 299.9661,147.1569 299.8561,146.9739 L295.6191,141.3259 C295.4811,141.1429 295.3261,141.0109 295.1531,140.9289 C294.9801,140.8489 294.7351,140.8079 294.4171,140.8079 L293.5371,140.8079 L293.5371,147.5339 L290.7491,147.5339 L290.7491,132.2309 L293.5371,132.2309 L293.5371,138.6499 Z M287.2071,132.2399 L287.2071,134.5039 L280.5671,134.5039 L280.5671,138.7449 L285.7981,138.7449 L285.7981,140.9349 L280.5671,140.9349 L280.5671,145.2599 L287.2071,145.2599 L287.2071,147.5339 L277.7591,147.5339 L277.7591,132.2399 L287.2071,132.2399 Z M274.3101,132.2399 L274.3101,134.5039 L267.6691,134.5039 L267.6691,138.7449 L272.9011,138.7449 L272.9011,140.9349 L267.6691,140.9349 L267.6691,145.2599 L274.3101,145.2599 L274.3101,147.5339 L264.8621,147.5339 L264.8621,132.2399 L274.3101,132.2399 Z M240.7541,132.2399 L243.0961,132.2399 C243.3371,132.2399 243.5401,132.2989 243.7021,132.4149 C243.8641,132.5309 243.9731,132.6889 244.0291,132.8859 L246.5771,142.0339 C246.6391,142.2599 246.6961,142.5049 246.7481,142.7699 C246.7991,143.0339 246.8491,143.3149 246.8981,143.6099 C246.9541,143.3149 247.0131,143.0339 247.0801,142.7699 C247.1451,142.5049 247.2151,142.2599 247.2911,142.0339 L250.2341,132.8859 C250.2891,132.7239 250.3981,132.5749 250.5601,132.4409 C250.7221,132.3079 250.9211,132.2399 251.1561,132.2399 L251.9741,132.2399 C252.2161,132.2399 252.4161,132.2989 252.5751,132.4149 C252.7341,132.5309 252.8441,132.6889 252.9071,132.8859 L255.8281,142.0339 C255.9801,142.4849 256.1111,142.9859 256.2221,143.5359 C256.2701,143.2619 256.3201,142.9969 256.3721,142.7429 C256.4231,142.4889 256.4771,142.2529 256.5331,142.0339 L259.0811,132.8859 C259.1291,132.7099 259.2371,132.5579 259.4021,132.4309 C259.5681,132.3039 259.7681,132.2399 260.0031,132.2399 L262.1891,132.2399 L257.5381,147.5339 L255.0201,147.5339 L251.7471,137.0849 C251.7051,136.9509 251.6621,136.8069 251.6171,136.6509 C251.5721,136.4959 251.5291,136.3299 251.4881,136.1539 C251.4461,136.3299 251.4031,136.4959 251.3581,136.6509 C251.3131,136.8069 251.2701,136.9509 251.2281,137.0849 L247.9231,147.5339 L245.4061,147.5339 L240.7541,132.2399 Z" id="Fill-13" fill="#FFFFFF" mask="url(#mask-2)"></path>
            </g>
        </g>
    </g>
</svg>